<svg width="25" height="24" viewBox="0 0 25 24" fill="none" xmlns="http://www.w3.org/2000/svg">
<path d="M7.505 12H23.255" stroke="#34393F" stroke-width="1.5" stroke-linecap="round" stroke-linejoin="round"/>
<path d="M19.505 15.7539L23.255 12.0039L19.505 8.25391" stroke="#34393F" stroke-width="1.5" stroke-linecap="round" stroke-linejoin="round"/>
<path d="M15.754 16.5V21C15.7712 21.3796 15.6373 21.7505 15.3817 22.0316C15.126 22.3127 14.7695 22.4811 14.39 22.5H2.11703C1.73783 22.4806 1.38169 22.312 1.12634 22.0309C0.870994 21.7499 0.73716 21.3793 0.754028 21V3C0.736894 2.62061 0.870635 2.24985 1.12604 1.96878C1.38144 1.68771 1.73774 1.51917 2.11703 1.5H14.39C14.7695 1.51891 15.126 1.68734 15.3817 1.96844C15.6373 2.24955 15.7712 2.62044 15.754 3V7.5" stroke="#34393F" stroke-width="1.5" stroke-linecap="round" stroke-linejoin="round"/>
</svg>
