<svg id="Layer_1" data-name="Layer 1" xmlns="http://www.w3.org/2000/svg" viewBox="0 0 1235.47 246.14"><defs><style>.cls-1{fill:#191919;}.cls-2{fill:#0d72ba;}</style></defs><title>Artboard 1 copy</title><rect class="cls-1" x="35.3" y="62.48" width="35.74" height="17.11"/><rect class="cls-1" x="35.3" y="194.56" width="35.74" height="17.11"/><rect class="cls-2" x="34.47" y="175.84" width="37.4" height="12"/><rect class="cls-2" x="34.47" y="85.46" width="37.4" height="12"/><rect class="cls-1" x="35.3" y="103.33" width="35.74" height="67.49"/><rect class="cls-1" x="77.85" y="62.48" width="35.74" height="17.11"/><rect class="cls-1" x="77.85" y="194.56" width="35.74" height="17.11"/><rect class="cls-2" x="77.02" y="175.84" width="37.4" height="12"/><rect class="cls-2" x="77.02" y="85.46" width="37.4" height="12"/><rect class="cls-1" x="77.85" y="103.33" width="35.74" height="67.49"/><rect class="cls-1" x="115.67" y="37.91" width="34.95" height="19.8" transform="translate(-5.34 18.91) rotate(-7.96)"/><rect class="cls-1" x="136.85" y="189.29" width="34.95" height="19.8" transform="matrix(0.99, -0.14, 0.14, 0.99, -26.11, 23.31)"/><rect class="cls-2" x="132.63" y="167.86" width="36.57" height="13.89" transform="translate(-22.77 22.6) rotate(-7.96)"/><rect class="cls-2" x="118.13" y="64.27" width="36.57" height="13.89" transform="translate(-8.55 19.59) rotate(-7.96)"/><rect class="cls-1" x="126.26" y="84.45" width="34.95" height="78.1" transform="translate(-15.73 21.11) rotate(-7.96)"/><path class="cls-2" d="M235.6,205q-14.67,0-23.37-5.46a30.23,30.23,0,0,1-12.46-15.69Q196,173.61,196,159.62V107.93q0-14,3.75-24a29.48,29.48,0,0,1,12.46-15.27q8.7-5.28,23.37-5.28,15,0,23.62,5.28A30,30,0,0,1,271.68,84q3.82,10,3.83,24v51.86q0,13.82-3.83,24a31.2,31.2,0,0,1-12.46,15.7Q250.61,205,235.6,205Zm0-18.59q6.3,0,9.29-2.73a13.72,13.72,0,0,0,4-7.51,49.09,49.09,0,0,0,1-10.4V102.13a47.67,47.67,0,0,0-1-10.41,13.19,13.19,0,0,0-4-7.25q-3-2.64-9.29-2.64c-4,0-7,.88-9,2.64a13,13,0,0,0-4.1,7.25,48.33,48.33,0,0,0-1,10.41v63.63a53.61,53.61,0,0,0,.94,10.4,13,13,0,0,0,4,7.51Q229.45,186.4,235.6,186.4Z"/><path class="cls-2" d="M332,205q-15.36,0-23.89-5.63a28.78,28.78,0,0,1-11.77-16q-3.24-10.41-3.24-24.91V64.94h24.57v96.38a82.48,82.48,0,0,0,.85,12.2,17.12,17.12,0,0,0,4,9.21q3.15,3.5,9.47,3.5,6.64,0,9.63-3.5a18.52,18.52,0,0,0,3.93-9.21,75.9,75.9,0,0,0,.94-12.2V64.94h24.39v93.48q0,14.51-3.24,24.91a28.88,28.88,0,0,1-11.69,16Q347.5,205,332,205Z"/><path class="cls-2" d="M404.47,203.12V83.54h-22V64.94h68.91v18.6H429.72V203.12Z"/><path class="cls-2" d="M464,203.12V64.94h25.24V185.72h33.44v17.4Z"/><path class="cls-2" d="M535.82,203.12V64.94h24.91V203.12Z"/><path class="cls-2" d="M582.05,203.12V64.94h17.57l33.6,78.81V64.94H654V203.12H637.32l-33.78-82.57v82.57Z"/><path class="cls-2" d="M675,203.12V64.94h58V82.68H700.27v39.75H726V140H700.27v45.72h33.09v17.4Z"/><path class="cls-1" d="M782.66,205Q769,205,761,199.19t-11.51-16.46Q746,172.07,746,157.57v-46.4q0-14.83,3.41-25.59a29.88,29.88,0,0,1,12-16.46q8.61-5.72,23.8-5.71,14.14,0,22.51,4.77a27.37,27.37,0,0,1,12,13.73q3.66,9,3.67,21.75v7.17H799.37V103a59.88,59.88,0,0,0-.94-11.43,12.47,12.47,0,0,0-3.75-7.25c-1.87-1.64-4.92-2.47-9.12-2.47q-6.66,0-9.64,3.24a15.53,15.53,0,0,0-3.75,8.53,79.86,79.86,0,0,0-.77,11.6V163a56.86,56.86,0,0,0,1.19,12.45,14.54,14.54,0,0,0,4.44,8.1q3.24,2.82,9.21,2.82,6.13,0,9.38-3.07a16.63,16.63,0,0,0,4.52-8.53,57.62,57.62,0,0,0,1.28-13v-13H786.58V133h37.53v70.11H807.9L806,189.47a26.31,26.31,0,0,1-8.28,11.17Q792.21,205,782.66,205Z"/><path class="cls-1" d="M881.25,205q-15.35,0-23.88-5.63a28.73,28.73,0,0,1-11.77-16q-3.24-10.41-3.24-24.91V64.94h24.56v96.38a82.43,82.43,0,0,0,.86,12.2,17,17,0,0,0,4,9.21q3.15,3.5,9.46,3.5,6.66,0,9.64-3.5a18.43,18.43,0,0,0,3.92-9.21,74.77,74.77,0,0,0,.94-12.2V64.94h24.4v93.48q0,14.51-3.25,24.91a28.87,28.87,0,0,1-11.68,16Q896.78,205,881.25,205Z"/><path class="cls-1" d="M939.93,203.12V64.94H973q14,0,23.62,3.33a27.14,27.14,0,0,1,14.67,11.34q5,8,5,21.84a67.2,67.2,0,0,1-1.54,15,28.55,28.55,0,0,1-5.2,11.34,23.43,23.43,0,0,1-10.15,7.25l19.27,68.07H993.5l-16.72-63.29h-11.6v63.29ZM965.18,124H973c4.89,0,8.78-.7,11.68-2.13a12.44,12.44,0,0,0,6.23-6.82,32.81,32.81,0,0,0,1.87-12q0-10.4-3.83-15.61t-14.59-5.2h-9.21Z"/><path class="cls-1" d="M1073,205q-15.36,0-23.88-5.63a28.73,28.73,0,0,1-11.77-16q-3.24-10.41-3.24-24.91V64.94h24.56v96.38a82.48,82.48,0,0,0,.85,12.2,17.19,17.19,0,0,0,4,9.21q3.15,3.5,9.47,3.5,6.65,0,9.64-3.5a18.52,18.52,0,0,0,3.92-9.21,75.9,75.9,0,0,0,.94-12.2V64.94h24.39v93.48q0,14.51-3.24,24.91a28.87,28.87,0,0,1-11.68,16Q1088.51,205,1073,205Z"/><path class="cls-1" d="M1166.47,205q-12.45,0-20.81-4.86A30.64,30.64,0,0,1,1133,185.89q-4.26-9.39-4.77-23l21.66-4.27a67.08,67.08,0,0,0,2,14.16,20.46,20.46,0,0,0,4.95,9.47,11.87,11.87,0,0,0,8.79,3.33q6.14,0,8.7-3.67a15.94,15.94,0,0,0,2.55-9.3q0-9-4.09-14.84a64.2,64.2,0,0,0-10.92-11.6l-17.4-15.35a52.24,52.24,0,0,1-11.68-14.08q-4.35-7.75-4.35-19.19,0-16.36,9.55-25.24t26.1-8.87q9.72,0,16.21,3a25.82,25.82,0,0,1,10.32,8.27,37.34,37.34,0,0,1,5.71,12,71,71,0,0,1,2.39,14.25l-21.49,3.75a74.7,74.7,0,0,0-1.45-11.6,16.24,16.24,0,0,0-3.93-8q-2.8-2.89-8.27-2.9-5.62,0-8.62,3.67a14,14,0,0,0-3,9.12q0,7,2.9,11.52a45.23,45.23,0,0,0,8.36,9.3L1180.46,131a71.52,71.52,0,0,1,14.58,16.8q6.06,9.65,6.06,23.29a35,35,0,0,1-4.35,17.57,31.23,31.23,0,0,1-12.11,12A36.59,36.59,0,0,1,1166.47,205Z"/></svg>